# xmcd
#
# Track frame offsets: 
#        150
#        16922
#        28740
#        42177
#        58278
#        73745
#        88465
#        101107
#        115410
#        130663
#        146163
#        163203
#        179993
#        195481
#        210038
#        227259
#        239701
#
# Disc length: 3372 seconds
#
# Revision: 0
# Processed by: cddbd v1.5.2PL0 Copyright (c) Steve Scherf et al.
# Submitted via: ExactAudioCopy v1.3
#
DISCID=fe0d2a11
DTITLE=Thomas Rhett - Life Changes [Deluxe]
DYEAR=2017
DGENRE=Country
TTITLE0=Craving You (feat. Maren Morris)
TTITLE1=Unforgettable
TTITLE2=Sixteen
TTITLE3=Drink a Little Beer (feat. Rhett Akins)
TTITLE4=Marry Me
TTITLE5=Leave Right Now
TTITLE6=Smooth Like the Summer
TTITLE7=Life Changes
TTITLE8=When You Look Like That
TTITLE9=Sweetheart
TTITLE10=Kiss Me Like a Stranger
TTITLE11=Renegades
TTITLE12=Gateway Love
TTITLE13=Grave
TTITLE14=Country Gold
TTITLE15=Cardboard Heart
TTITLE16=When We're 80
EXTD=
EXTT0=
EXTT1=
EXTT2=
EXTT3=
EXTT4=
EXTT5=
EXTT6=
EXTT7=
EXTT8=
EXTT9=
EXTT10=
EXTT11=
EXTT12=
EXTT13=
EXTT14=
EXTT15=
EXTT16=
PLAYORDER=
